<?xml version="1.0" encoding="UTF-8" standalone="no"?>
<svg
   xmlns:dc="http://purl.org/dc/elements/1.1/"
   xmlns:cc="http://creativecommons.org/ns#"
   xmlns:rdf="http://www.w3.org/1999/02/22-rdf-syntax-ns#"
   xmlns:svg="http://www.w3.org/2000/svg"
   xmlns="http://www.w3.org/2000/svg"
   xmlns:sodipodi="http://sodipodi.sourceforge.net/DTD/sodipodi-0.dtd"
   xmlns:inkscape="http://www.inkscape.org/namespaces/inkscape"
   version="1.1"
   id="SP_RedEyeRemove_Lg_N"
   x="0px"
   y="0px"
   viewBox="0 0 10.7 7"
   xml:space="preserve"
   sodipodi:docname="eye2.svg"
   width="10.7"
   height="7"
   inkscape:version="1.0.1 (c497b03c, 2020-09-10)"><metadata
   id="metadata852"><rdf:RDF><cc:Work
       rdf:about=""><dc:format>image/svg+xml</dc:format><dc:type
         rdf:resource="http://purl.org/dc/dcmitype/StillImage" /><dc:title></dc:title></cc:Work></rdf:RDF></metadata><defs
   id="defs850" /><sodipodi:namedview
   pagecolor="#ffffff"
   bordercolor="#666666"
   borderopacity="1"
   objecttolerance="10"
   gridtolerance="10"
   guidetolerance="10"
   inkscape:pageopacity="0"
   inkscape:pageshadow="2"
   inkscape:window-width="1792"
   inkscape:window-height="1120"
   id="namedview848"
   showgrid="false"
   inkscape:zoom="39.555556"
   inkscape:cx="9"
   inkscape:cy="9"
   inkscape:window-x="0"
   inkscape:window-y="0"
   inkscape:window-maximized="0"
   inkscape:current-layer="SP_RedEyeRemove_Lg_N.png" />
<g
   id="content">
	<g
   id="SP_RedEyeRemove_Lg_N.png">
		<g
   id="g843"
   transform="translate(-6.3707865,-7.8623595)">
			<g
   id="g835">
				<path
   d="M 1.4,6.2 C 1.2,6.2 1,6.4 1,6.6 1,6.9 1.2,7 1.4,7 h 2.8 v 2.8 c 0,0.2 0.2,0.4 0.4,0.4 C 4.8,10.2 5,10.1 5,9.8 V 7 H 7.8 C 8,7 8.2,6.8 8.2,6.6 8.2,6.4 8,6.2 7.8,6.2 H 5 V 3.4 C 5,3.2 4.9,3 4.6,3 4.3,3 4.2,3.2 4.2,3.4 v 2.8 z"
   id="path833" />
			</g>
			<g
   id="g841">
				<path
   d="m 9.5,11.4 c 0,-1.3 1,-2.3 2.3,-2.3 1.3,0 2.3,1 2.3,2.3 0,1.3 -1,2.3 -2.3,2.3 -1.3,0 -2.3,-1.1 -2.3,-2.3 z m -2.9,0.2 c 0,0 2,3 5.2,3 3.2,0 5.1,-3 5.1,-3 0,0 -2,-3.4 -5.1,-3.4 -3.2,0 -5.2,3.4 -5.2,3.4 z"
   id="path837" />
				<path
   d="m 10.6,11.4 c 0,0.7 0.6,1.3 1.3,1.3 0.7,0 1.3,-0.6 1.3,-1.3 0,-0.1 0,-0.2 0,-0.2 -0.1,0.1 -0.2,0.1 -0.3,0.1 -0.4,0 -0.7,-0.3 -0.7,-0.7 0,-0.2 0,-0.2 0.1,-0.3 -0.1,0 -0.2,0 -0.2,0 -1,-0.1 -1.5,0.4 -1.5,1.1 z"
   id="path839" />
			</g>
		</g>
	</g>
</g>
</svg>
