<?xml version="1.0" encoding="UTF-8"?>
<svg version="1.1" xmlns="http://www.w3.org/2000/svg" width="99" height="54">
<path d="M0 0 C5.28 0 10.56 0 16 0 C16 1.32 16 2.64 16 4 C17.98 4 19.96 4 22 4 C22 4.99 22 5.98 22 7 C22.99 7 23.98 7 25 7 C25 7.99 25 8.98 25 10 C26.32 10 27.64 10 29 10 C29 11.98 29 13.96 29 16 C29.99 16 30.98 16 32 16 C32 21.28 32 26.56 32 32 C31.01 32 30.02 32 29 32 C29 34.31 29 36.62 29 39 C27.68 39 26.36 39 25 39 C25 39.99 25 40.98 25 42 C24.01 42 23.02 42 22 42 C22 42.99 22 43.98 22 45 C20.02 45 18.04 45 16 45 C16 46.32 16 47.64 16 49 C10.72 49 5.44 49 0 49 C0 47.68 0 46.36 0 45 C-2.31 45 -4.62 45 -7 45 C-7 44.01 -7 43.02 -7 42 C-7.99 42 -8.98 42 -10 42 C-10 41.01 -10 40.02 -10 39 C-10.99 39 -11.98 39 -13 39 C-13 38.01 -13 37.02 -13 36 C-7.72 36 -2.44 36 3 36 C3 36.99 3 37.98 3 39 C6.3 39 9.6 39 13 39 C13 38.01 13 37.02 13 36 C14.98 36 16.96 36 19 36 C19 33.69 19 31.38 19 29 C19.99 29 20.98 29 22 29 C22 26.03 22 23.06 22 20 C21.01 20 20.02 20 19 20 C19 17.69 19 15.38 19 13 C17.02 13 15.04 13 13 13 C13 12.01 13 11.02 13 10 C11.02013918 10.11347619 9.04108402 10.2410935 7.0625 10.375 C5.96035156 10.44460938 4.85820313 10.51421875 3.72265625 10.5859375 C2.82417969 10.72257813 1.92570312 10.85921875 1 11 C0.67 11.66 0.34 12.32 0 13 C-0.99 13 -1.98 13 -3 13 C-3 13.99 -3 14.98 -3 16 C-9.460199 16.36567164 -9.460199 16.36567164 -11.9375 14.6875 C-13 13 -13 13 -13 10 C-12.01 10 -11.02 10 -10 10 C-10 9.01 -10 8.02 -10 7 C-9.01 7 -8.02 7 -7 7 C-7 6.01 -7 5.02 -7 4 C-4.69 4 -2.38 4 0 4 C0 2.68 0 1.36 0 0 Z " fill="#D2D2D2" transform="translate(64,2)"/>
<path d="M0 0 C5.28 0 10.56 0 16 0 C16 1.32 16 2.64 16 4 C17.98 4 19.96 4 22 4 C22 4.99 22 5.98 22 7 C23.32 7 24.64 7 26 7 C26 7.99 26 8.98 26 10 C26.99 10 27.98 10 29 10 C29 11.65 29 13.3 29 15 C28.505 14.01 28.505 14.01 28 13 C27.34 13 26.68 13 26 13 C26 13.99 26 14.98 26 16 C22.98968256 16.93423645 22.13349732 17.04449911 19 16 C19 15.01 19 14.02 19 13 C17.02 13 15.04 13 13 13 C13 12.01 13 11.02 13 10 C11.02013918 10.11347619 9.04108402 10.2410935 7.0625 10.375 C5.96035156 10.44460938 4.85820312 10.51421875 3.72265625 10.5859375 C2.37494141 10.79089844 2.37494141 10.79089844 1 11 C0.67 11.66 0.34 12.32 0 13 C-0.99 13 -1.98 13 -3 13 C-3 13.99 -3 14.98 -3 16 C-3.99 16.33 -4.98 16.66 -6 17 C-6.33 20.96 -6.66 24.92 -7 29 C-5.68 29 -4.36 29 -3 29 C-3 31.31 -3 33.62 -3 36 C-1.02 36 0.96 36 3 36 C3 36.99 3 37.98 3 39 C6.3 39 9.6 39 13 39 C13 38.01 13 37.02 13 36 C18.28 36 23.56 36 29 36 C29 36.99 29 37.98 29 39 C28.01 39 27.02 39 26 39 C26 39.99 26 40.98 26 42 C24.68 42 23.36 42 22 42 C22 42.99 22 43.98 22 45 C20.02 45 18.04 45 16 45 C16 46.32 16 47.64 16 49 C14.08416353 49.1958009 12.16727461 49.38132214 10.25 49.5625 C8.64898438 49.71912109 8.64898438 49.71912109 7.015625 49.87890625 C4.35858796 49.98560074 2.50039428 49.81930395 0 49 C0 47.68 0 46.36 0 45 C-2.31 45 -4.62 45 -7 45 C-7 44.01 -7 43.02 -7 42 C-7.99 42 -8.98 42 -10 42 C-10 41.01 -10 40.02 -10 39 C-10.99 39 -11.98 39 -13 39 C-13 36.69 -13 34.38 -13 32 C-13.99 32 -14.98 32 -16 32 C-16 26.72 -16 21.44 -16 16 C-15.01 16 -14.02 16 -13 16 C-13 14.02 -13 12.04 -13 10 C-12.01 10 -11.02 10 -10 10 C-10 9.01 -10 8.02 -10 7 C-9.01 7 -8.02 7 -7 7 C-7 6.01 -7 5.02 -7 4 C-4.69 4 -2.38 4 0 4 C0 2.68 0 1.36 0 0 Z " fill="#C3C2C2" transform="translate(19,2)"/>
<path d="M0 0 C5.28 0 10.56 0 16 0 C16 1.32 16 2.64 16 4 C17.98 4 19.96 4 22 4 C22 4.99 22 5.98 22 7 C22.99 7 23.98 7 25 7 C25 7.99 25 8.98 25 10 C26.32 10 27.64 10 29 10 C29 11.98 29 13.96 29 16 C26.69 16 24.38 16 22 16 C22 17.32 22 18.64 22 20 C21.01 20 20.02 20 19 20 C19 17.69 19 15.38 19 13 C17.02 13 15.04 13 13 13 C13 12.01 13 11.02 13 10 C11.02013918 10.11347619 9.04108402 10.2410935 7.0625 10.375 C5.96035156 10.44460938 4.85820313 10.51421875 3.72265625 10.5859375 C2.82417969 10.72257813 1.92570312 10.85921875 1 11 C0.67 11.66 0.34 12.32 0 13 C-0.99 13 -1.98 13 -3 13 C-3 13.99 -3 14.98 -3 16 C-9.460199 16.36567164 -9.460199 16.36567164 -11.9375 14.6875 C-13 13 -13 13 -13 10 C-12.01 10 -11.02 10 -10 10 C-10 9.01 -10 8.02 -10 7 C-9.01 7 -8.02 7 -7 7 C-7 6.01 -7 5.02 -7 4 C-4.69 4 -2.38 4 0 4 C0 2.68 0 1.36 0 0 Z " fill="#CDCDCD" transform="translate(64,2)"/>
<path d="M0 0 C13.53 0 27.06 0 41 0 C41 2.97 41 5.94 41 9 C27.47 9 13.94 9 0 9 C0 6.03 0 3.06 0 0 Z " fill="#D6D6D6" transform="translate(29,22)"/>
<path d="M0 0 C5.28 0 10.56 0 16 0 C16 1.32 16 2.64 16 4 C17.98 4 19.96 4 22 4 C22 4.99 22 5.98 22 7 C23.32 7 24.64 7 26 7 C26 7.99 26 8.98 26 10 C26.99 10 27.98 10 29 10 C29 11.65 29 13.3 29 15 C28.67 14.34 28.34 13.68 28 13 C27.34 13 26.68 13 26 13 C26 13.99 26 14.98 26 16 C22.98968256 16.93423645 22.13349732 17.04449911 19 16 C19 15.01 19 14.02 19 13 C17.02 13 15.04 13 13 13 C13 11.02 13 9.04 13 7 C7.72 7 2.44 7 -3 7 C-3 6.01 -3 5.02 -3 4 C-2.01 4 -1.02 4 0 4 C0 2.68 0 1.36 0 0 Z " fill="#CDCDCD" transform="translate(19,2)"/>
<path d="M0 0 C1.32 0 2.64 0 4 0 C4 0.99 4 1.98 4 3 C9.28 3 14.56 3 20 3 C20 3.99 20 4.98 20 6 C19.14535156 6.04898437 18.29070312 6.09796875 17.41015625 6.1484375 C16.30542969 6.22320313 15.20070313 6.29796875 14.0625 6.375 C12.96035156 6.44460937 11.85820313 6.51421875 10.72265625 6.5859375 C9.82417969 6.72257813 8.92570312 6.85921875 8 7 C7.67 7.66 7.34 8.32 7 9 C6.01 9 5.02 9 4 9 C4 9.99 4 10.98 4 12 C-2.460199 12.36567164 -2.460199 12.36567164 -4.9375 10.6875 C-6 9 -6 9 -6 6 C-5.01 6 -4.02 6 -3 6 C-3 5.01 -3 4.02 -3 3 C-2.01 3 -1.02 3 0 3 C0 2.01 0 1.02 0 0 Z " fill="#B2B2B2" transform="translate(57,6)"/>
<path d="M0 0 C2.97 0 5.94 0 9 0 C9 0.99 9 1.98 9 3 C10.32 3 11.64 3 13 3 C13 4.98 13 6.96 13 9 C10.69 9 8.38 9 6 9 C6 10.32 6 11.64 6 13 C5.01 13 4.02 13 3 13 C3 10.69 3 8.38 3 6 C1.02 6 -0.96 6 -3 6 C-3 5.01 -3 4.02 -3 3 C-2.01 3 -1.02 3 0 3 C0 2.01 0 1.02 0 0 Z " fill="#B7B7B7" transform="translate(80,9)"/>
<path d="M0 0 C3.3 0 6.6 0 10 0 C10 0.99 10 1.98 10 3 C10.99 3 11.98 3 13 3 C13 4.65 13 6.3 13 8 C12.67 7.34 12.34 6.68 12 6 C11.34 6 10.68 6 10 6 C10 6.99 10 7.98 10 9 C6.98968256 9.93423645 6.13349732 10.04449911 3 9 C3 8.01 3 7.02 3 6 C1.02 6 -0.96 6 -3 6 C-3 5.01 -3 4.02 -3 3 C-2.01 3 -1.02 3 0 3 C0 2.01 0 1.02 0 0 Z " fill="#BABABA" transform="translate(35,9)"/>
<path d="M0 0 C5.28 0 10.56 0 16 0 C16 0.99 16 1.98 16 3 C15.01 3 14.02 3 13 3 C13 3.99 13 4.98 13 6 C12.01 6 11.02 6 10 6 C10 6.99 10 7.98 10 9 C8.68 9 7.36 9 6 9 C6 8.01 6 7.02 6 6 C5.01 6 4.02 6 3 6 C3 5.01 3 4.02 3 3 C2.01 3 1.02 3 0 3 C0 2.01 0 1.02 0 0 Z " fill="#ABABAB" transform="translate(51,38)"/>
<path d="M0 0 C5.28 0 10.56 0 16 0 C16 1.32 16 2.64 16 4 C14.08416353 4.1958009 12.16727461 4.38132214 10.25 4.5625 C8.64898438 4.71912109 8.64898438 4.71912109 7.015625 4.87890625 C4.35858796 4.98560074 2.50039428 4.81930395 0 4 C0 2.68 0 1.36 0 0 Z " fill="#868686" transform="translate(19,47)"/>
<path d="M0 0 C5.28 0 10.56 0 16 0 C16 1.32 16 2.64 16 4 C10.72 4 5.44 4 0 4 C0 2.68 0 1.36 0 0 Z " fill="#848484" transform="translate(64,47)"/>
<path d="M0 0 C5.28 0 10.56 0 16 0 C16 1.32 16 2.64 16 4 C10.72 4 5.44 4 0 4 C0 2.68 0 1.36 0 0 Z " fill="#8C8C8C" transform="translate(64,2)"/>
<path d="M0 0 C5.28 0 10.56 0 16 0 C16 1.32 16 2.64 16 4 C10.72 4 5.44 4 0 4 C0 2.68 0 1.36 0 0 Z " fill="#8F8F8F" transform="translate(19,2)"/>
<path d="M0 0 C0.99 0 1.98 0 3 0 C3 5.28 3 10.56 3 16 C2.01 16 1.02 16 0 16 C0 10.72 0 5.44 0 0 Z " fill="#7F7F7F" transform="translate(93,18)"/>
<path d="M0 0 C0.99 0 1.98 0 3 0 C3 5.28 3 10.56 3 16 C2.01 16 1.02 16 0 16 C0 10.72 0 5.44 0 0 Z " fill="#888888" transform="translate(3,18)"/>
<path d="M0 0 C3.3 0 6.6 0 10 0 C10 0.99 10 1.98 10 3 C6.7 3 3.4 3 0 3 C0 2.01 0 1.02 0 0 Z " fill="#AEAEAE" transform="translate(67,41)"/>
<path d="M0 0 C3.3 0 6.6 0 10 0 C10 0.99 10 1.98 10 3 C6.7 3 3.4 3 0 3 C0 2.01 0 1.02 0 0 Z " fill="#ACACAC" transform="translate(22,41)"/>
<path d="M0 0 C3.3 0 6.6 0 10 0 C10 0.99 10 1.98 10 3 C6.7 3 3.4 3 0 3 C0 2.01 0 1.02 0 0 Z " fill="#A3A4A4" transform="translate(22,9)"/>
<path d="M0 0 C1.32 0 2.64 0 4 0 C4 2.31 4 4.62 4 7 C2.68 7 1.36 7 0 7 C0 4.69 0 2.38 0 0 Z " fill="#9F9F9F" transform="translate(89,34)"/>
<path d="M0 0 C1.32 0 2.64 0 4 0 C4 2.31 4 4.62 4 7 C2.68 7 1.36 7 0 7 C0 4.69 0 2.38 0 0 Z " fill="#838383" transform="translate(12,31)"/>
<path d="M0 0 C0.99 0 1.98 0 3 0 C3 2.97 3 5.94 3 9 C2.01 9 1.02 9 0 9 C0 6.03 0 3.06 0 0 Z " fill="#ADADAD" transform="translate(86,22)"/>
<path d="M0 0 C0.99 0 1.98 0 3 0 C3 2.97 3 5.94 3 9 C2.01 9 1.02 9 0 9 C0 6.03 0 3.06 0 0 Z " fill="#A5A4A4" transform="translate(9,22)"/>
<path d="M0 0 C1.98 0 3.96 0 6 0 C5.67 1.65 5.34 3.3 5 5 C3.35 4.67 1.7 4.34 0 4 C0 2.68 0 1.36 0 0 Z " fill="#7A7A7A" transform="translate(19,47)"/>
<path d="M0 0 C1.98 0 3.96 0 6 0 C6 1.32 6 2.64 6 4 C4.02 4 2.04 4 0 4 C0 2.68 0 1.36 0 0 Z " fill="#7D7D7D" transform="translate(64,47)"/>
<path d="M0 0 C1.32 0 2.64 0 4 0 C4 1.98 4 3.96 4 6 C2.68 6 1.36 6 0 6 C0 4.02 0 2.04 0 0 Z " fill="#9E9E9E" transform="translate(89,12)"/>
<path d="M0 0 C1.98 0 3.96 0 6 0 C6 1.32 6 2.64 6 4 C4.02 4 2.04 4 0 4 C0 2.68 0 1.36 0 0 Z " fill="#868686" transform="translate(64,2)"/>
<path d="M0 0 C1.98 0 3.96 0 6 0 C6 1.32 6 2.64 6 4 C4.02 4 2.04 4 0 4 C0 2.68 0 1.36 0 0 Z " fill="#858585" transform="translate(19,2)"/>
<path d="M0 0 C2.31 0 4.62 0 7 0 C7 0.99 7 1.98 7 3 C3.98968256 3.93423645 3.13349732 4.04449911 0 3 C0 2.01 0 1.02 0 0 Z " fill="#5B5B5B" transform="translate(38,15)"/>
<path d="M0 0 C0.99 0 1.98 0 3 0 C3 2.31 3 4.62 3 7 C2.01 7 1.02 7 0 7 C0 4.69 0 2.38 0 0 Z " fill="#8A8A8A" transform="translate(83,31)"/>
<path d="M0 0 C0.99 0 1.98 0 3 0 C3 2.31 3 4.62 3 7 C2.01 7 1.02 7 0 7 C0 4.69 0 2.38 0 0 Z " fill="#A6A6A6" transform="translate(6,34)"/>
<path d="M0 0 C2.31 0 4.62 0 7 0 C7 0.99 7 1.98 7 3 C4.69 3 2.38 3 0 3 C0 2.01 0 1.02 0 0 Z " fill="#5A5A5A" transform="translate(54,15)"/>
<path d="M0 0 C1.98 0 3.96 0 6 0 C6 0.99 6 1.98 6 3 C4.02 3 2.04 3 0 3 C0 2.01 0 1.02 0 0 Z " fill="#848484" transform="translate(77,38)"/>
<path d="M0 0 C1.98 0 3.96 0 6 0 C6 0.99 6 1.98 6 3 C4.02 3 2.04 3 0 3 C0 2.01 0 1.02 0 0 Z " fill="#858585" transform="translate(32,38)"/>
<path d="M0 0 C0.99 0 1.98 0 3 0 C3 1.98 3 3.96 3 6 C2.01 6 1.02 6 0 6 C0 4.02 0 2.04 0 0 Z " fill="#A5A5A5" transform="translate(6,12)"/>
<path d="M0 0 C1.98 0 3.96 0 6 0 C6 0.99 6 1.98 6 3 C4.02 3 2.04 3 0 3 C0 2.01 0 1.02 0 0 Z " fill="#7E7E7E" transform="translate(77,12)"/>
<path d="M0 0 C1.98 0 3.96 0 6 0 C6 0.99 6 1.98 6 3 C4.02 3 2.04 3 0 3 C0 2.01 0 1.02 0 0 Z " fill="#7F7F7F" transform="translate(32,12)"/>
<path d="" fill="#525255" transform="translate(0,0)"/>
<path d="" fill="#515452" transform="translate(0,0)"/>
<path d="" fill="#545552" transform="translate(0,0)"/>
<path d="" fill="#525552" transform="translate(0,0)"/>
<path d="" fill="#555254" transform="translate(0,0)"/>
<path d="" fill="#525255" transform="translate(0,0)"/>
<path d="" fill="#525552" transform="translate(0,0)"/>
<path d="" fill="#545154" transform="translate(0,0)"/>
<path d="" fill="#515451" transform="translate(0,0)"/>
<path d="" fill="#515452" transform="translate(0,0)"/>
<path d="" fill="#525552" transform="translate(0,0)"/>
<path d="" fill="#515452" transform="translate(0,0)"/>
<path d="" fill="#545153" transform="translate(0,0)"/>
<path d="" fill="#515452" transform="translate(0,0)"/>
<path d="" fill="#525255" transform="translate(0,0)"/>
<path d="" fill="#525255" transform="translate(0,0)"/>
<path d="" fill="#595858" transform="translate(0,0)"/>
<path d="" fill="#515452" transform="translate(0,0)"/>
<path d="" fill="#515451" transform="translate(0,0)"/>
<path d="" fill="#525154" transform="translate(0,0)"/>
<path d="" fill="#575959" transform="translate(0,0)"/>
<path d="" fill="#545154" transform="translate(0,0)"/>
<path d="" fill="#595858" transform="translate(0,0)"/>
<path d="" fill="#595858" transform="translate(0,0)"/>
<path d="" fill="#545153" transform="translate(0,0)"/>
<path d="" fill="#515452" transform="translate(0,0)"/>
<path d="" fill="#515452" transform="translate(0,0)"/>
<path d="" fill="#515452" transform="translate(0,0)"/>
<path d="" fill="#515452" transform="translate(0,0)"/>
<path d="" fill="#515452" transform="translate(0,0)"/>
</svg>
