<?xml version="1.0" encoding="UTF-8" standalone="no"?>
<svg
   xmlns:dc="http://purl.org/dc/elements/1.1/"
   xmlns:cc="http://creativecommons.org/ns#"
   xmlns:rdf="http://www.w3.org/1999/02/22-rdf-syntax-ns#"
   xmlns:svg="http://www.w3.org/2000/svg"
   xmlns="http://www.w3.org/2000/svg"
   xmlns:sodipodi="http://sodipodi.sourceforge.net/DTD/sodipodi-0.dtd"
   xmlns:inkscape="http://www.inkscape.org/namespaces/inkscape"
   width="51mm"
   height="61mm"
   viewBox="0 0 51 61"
   version="1.1"
   id="svg3242"
   inkscape:version="1.0.1 (c497b03c, 2020-09-10)"
   sodipodi:docname="lock.svg">
  <defs
     id="defs3236" />
  <sodipodi:namedview
     id="base"
     pagecolor="#ffffff"
     bordercolor="#666666"
     borderopacity="1.0"
     inkscape:pageopacity="0.0"
     inkscape:pageshadow="2"
     inkscape:zoom="0.35"
     inkscape:cx="400"
     inkscape:cy="560"
     inkscape:document-units="mm"
     inkscape:current-layer="layer1"
     inkscape:document-rotation="0"
     showgrid="false"
     inkscape:window-width="1792"
     inkscape:window-height="1039"
     inkscape:window-x="0"
     inkscape:window-y="25"
     inkscape:window-maximized="0" />
  <metadata
     id="metadata3239">
    <rdf:RDF>
      <cc:Work
         rdf:about="">
        <dc:format>image/svg+xml</dc:format>
        <dc:type
           rdf:resource="http://purl.org/dc/dcmitype/StillImage" />
        <dc:title></dc:title>
      </cc:Work>
    </rdf:RDF>
  </metadata>
  <g
     inkscape:label="Layer 1"
     inkscape:groupmode="layer"
     id="layer1">
    <g
       id="ETAspectLocked"
       transform="matrix(3.508879,0,0,3.508879,-2614.5558,-846.60367)">
      <path
         id="XMLID_11818_"
         fill="#dddddd"
         d="m 758.5,249 h -12 c -0.27612,0 -0.5,0.22388 -0.5,0.5 v 8 c 0,0.27612 0.22388,0.5 0.5,0.5 h 12 c 0.27612,0 0.5,-0.22388 0.5,-0.5 v -8 c 0,-0.27612 -0.22388,-0.5 -0.5,-0.5 z m -5,4.11084 V 255.5 c 0,0.27614 -0.22388,0.5 -0.5,0.5 h -1 c -0.27612,0 -0.5,-0.22386 -0.5,-0.5 v -2.38916 C 751.19519,252.83618 751,252.44238 751,252 c 0,-0.82837 0.67157,-1.5 1.5,-1.5 0.82843,0 1.5,0.67163 1.5,1.5 0,0.44238 -0.19519,0.83618 -0.5,1.11084 z" />
      <path
         fill="none"
         stroke="#dddddd"
         stroke-width="2"
         stroke-miterlimit="10"
         d="m 747.99249,252.22542 v -4.46692 c 0,-2.47499 2.02503,-4.49999 4.5,-4.49999 v 0 c 2.47504,0 4.5,2.025 4.5,4.49999 v 4.46692"
         id="path1471" />
      <rect
         x="743"
         y="238"
         fill="none"
         width="19"
         height="24"
         id="rect1473" />
    </g>
  </g>
</svg>
