<?xml version="1.0" encoding="UTF-8"?>
<svg version="1.1" xmlns="http://www.w3.org/2000/svg" width="79" height="88">
<path d="M0 0 C5.28 0 10.56 0 16 0 C16 1.98 16 3.96 16 6 C15.01 6 14.02 6 13 6 C13 7.32 13 8.64 13 10 C9.7 10 6.4 10 3 10 C3 11.98 3 13.96 3 16 C2.34 16.33 1.68 16.66 1 17 C0.34444881 19.52733235 0.34444881 19.52733235 0 22 C1.093125 21.814375 2.18625 21.62875 3.3125 21.4375 C7 21 7 21 10 22 C10 24.31 10 26.62 10 29 C6.7 29 3.4 29 0 29 C0 29.99 0 30.98 0 32 C-0.99 32 -1.98 32 -3 32 C-3 36.29 -3 40.58 -3 45 C-3.99 45 -4.98 45 -6 45 C-6 50.28 -6 55.56 -6 61 C-6.99 61 -7.98 61 -9 61 C-9 65.29 -9 69.58 -9 74 C-10.32 74 -11.64 74 -13 74 C-13 75.98 -13 77.96 -13 80 C-15.97 80 -18.94 80 -22 80 C-22.125 77.125 -22.125 77.125 -22 74 C-21.01 73.01 -21.01 73.01 -20 72 C-19.69940057 69.63490639 -19.50484988 67.25558119 -19.375 64.875 C-19.30023438 63.59367187 -19.22546875 62.31234375 -19.1484375 60.9921875 C-19.09945313 60.00476563 -19.05046875 59.01734375 -19 58 C-18.01 58 -17.02 58 -16 58 C-16 53.71 -16 49.42 -16 45 C-15.01 44.505 -15.01 44.505 -14 44 C-13.68758629 41.45058627 -13.48696579 38.99638487 -13.375 36.4375 C-13.33632812 35.72658203 -13.29765625 35.01566406 -13.2578125 34.28320312 C-13.16328217 32.52257575 -13.08054183 30.76132272 -13 29 C-14.98 29 -16.96 29 -19 29 C-19.38133299 27.0085944 -19.71325582 25.00720923 -20 23 C-19 22 -19 22 -16.71484375 21.90234375 C-15.34005859 21.91974609 -15.34005859 21.91974609 -13.9375 21.9375 C-13.01839844 21.94652344 -12.09929688 21.95554687 -11.15234375 21.96484375 C-10.44207031 21.97644531 -9.73179688 21.98804687 -9 22 C-9 19.03 -9 16.06 -9 13 C-8.34 12.67 -7.68 12.34 -7 12 C-6.34227572 8.97065509 -6.34227572 8.97065509 -6 6 C-5.01 6 -4.02 6 -3 6 C-3 5.01 -3 4.02 -3 3 C-2.01 3 -1.02 3 0 3 C0 2.01 0 1.02 0 0 Z " fill="#D4D4D4" transform="translate(25,4)"/>
<path d="M0 0 C4.29 0 8.58 0 13 0 C13 3.3 13 6.6 13 10 C13.99 10 14.98 10 16 10 C16 10.99 16 11.98 16 13 C16.99 13 17.98 13 19 13 C19 12.01 19 11.02 19 10 C19.99 10 20.98 10 22 10 C22 8.02 22 6.04 22 4 C23.32 4 24.64 4 26 4 C26 2.68 26 1.36 26 0 C29.96 0 33.92 0 38 0 C38 1.32 38 2.64 38 4 C37.01 4 36.02 4 35 4 C35 4.99 35 5.98 35 7 C34.01 7 33.02 7 32 7 C32 8.98 32 10.96 32 13 C31.01 13 30.02 13 29 13 C29 13.99 29 14.98 29 16 C28.01 16 27.02 16 26 16 C26 17.32 26 18.64 26 20 C24.68 20 23.36 20 22 20 C22 21.98 22 23.96 22 26 C23.32 26 24.64 26 26 26 C26 29.3 26 32.6 26 36 C26.99 36 27.98 36 29 36 C29 38.97 29 41.94 29 45 C25.7 45 22.4 45 19 45 C19 43.02 19 41.04 19 39 C18.01 39 17.02 39 16 39 C16 35.7 16 32.4 16 29 C15.01 29 14.02 29 13 29 C13 29.99 13 30.98 13 32 C12.01 32 11.02 32 10 32 C10 33.32 10 34.64 10 36 C8.68 36 7.36 36 6 36 C6 37.98 6 39.96 6 42 C5.01 42 4.02 42 3 42 C3 42.99 3 43.98 3 45 C0.03 45 -2.94 45 -6 45 C-6 43.02 -6 41.04 -6 39 C-5.01 39 -4.02 39 -3 39 C-3 36.69 -3 34.38 -3 32 C-2.01 32 -1.02 32 0 32 C0 31.01 0 30.02 0 29 C0.99 29 1.98 29 3 29 C3 28.01 3 27.02 3 26 C3.99 26 4.98 26 6 26 C6 25.01 6 24.02 6 23 C7.32 23 8.64 23 10 23 C10 22.01 10 21.02 10 20 C8.68 20 7.36 20 6 20 C5.92652344 19.04287109 5.92652344 19.04287109 5.8515625 18.06640625 C5.73941406 16.82697266 5.73941406 16.82697266 5.625 15.5625 C5.55539063 14.73878906 5.48578125 13.91507813 5.4140625 13.06640625 C5.20910156 12.04353516 5.20910156 12.04353516 5 11 C4.34 10.67 3.68 10.34 3 10 C3 8.02 3 6.04 3 4 C2.01 4 1.02 4 0 4 C0 2.68 0 1.36 0 0 Z " fill="#BEBEBE" transform="translate(38,26)"/>
<path d="M0 0 C3.96 0 7.92 0 12 0 C12 1.32 12 2.64 12 4 C11.01 4 10.02 4 9 4 C9 4.99 9 5.98 9 7 C8.01 7 7.02 7 6 7 C6 8.98 6 10.96 6 13 C5.01 13 4.02 13 3 13 C3 13.99 3 14.98 3 16 C2.01 16 1.02 16 0 16 C0 14.02 0 12.04 0 10 C-1.32 10 -2.64 10 -4 10 C-4 8.02 -4 6.04 -4 4 C-2.68 4 -1.36 4 0 4 C0 2.68 0 1.36 0 0 Z " fill="#9C9C9C" transform="translate(64,26)"/>
<path d="M0 0 C0.99 0 1.98 0 3 0 C3 0.99 3 1.98 3 3 C4.32 3 5.64 3 7 3 C7 4.32 7 5.64 7 7 C7.99 7 8.98 7 10 7 C10 9.97 10 12.94 10 16 C6.7 16 3.4 16 0 16 C0 10.72 0 5.44 0 0 Z " fill="#D3D3D3" transform="translate(57,55)"/>
<path d="M0 0 C0.99 0 1.98 0 3 0 C3 1.32 3 2.64 3 4 C4.98 4 6.96 4 9 4 C9 5.98 9 7.96 9 10 C8.01 10 7.02 10 6 10 C6 10.99 6 11.98 6 13 C3.03 13 0.06 13 -3 13 C-3 11.02 -3 9.04 -3 7 C-2.01 7 -1.02 7 0 7 C0 4.69 0 2.38 0 0 Z " fill="#999999" transform="translate(35,58)"/>
<path d="M0 0 C4.29 0 8.58 0 13 0 C13 1.32 13 2.64 13 4 C10.69 4 8.38 4 6 4 C6 6.31 6 8.62 6 11 C5.01 10.67 4.02 10.34 3 10 C3 8.02 3 6.04 3 4 C2.01 4 1.02 4 0 4 C0 2.68 0 1.36 0 0 Z " fill="#9F9F9F" transform="translate(38,26)"/>
<path d="M0 0 C0 2.31 0 4.62 0 7 C-3.3 7 -6.6 7 -10 7 C-10 4.69 -10 2.38 -10 0 C-6.33694766 -0.74926071 -3.57644848 -1.2380014 0 0 Z " fill="#C6C6C6" transform="translate(35,26)"/>
<path d="M0 0 C1.37478516 0.01740234 1.37478516 0.01740234 2.77734375 0.03515625 C3.69644531 0.04417969 4.61554687 0.05320312 5.5625 0.0625 C6.27277344 0.07410156 6.98304687 0.08570312 7.71484375 0.09765625 C7.71484375 2.40765625 7.71484375 4.71765625 7.71484375 7.09765625 C4.41484375 7.09765625 1.11484375 7.09765625 -2.28515625 7.09765625 C-2.66648924 5.10625065 -2.99841207 3.10486548 -3.28515625 1.09765625 C-2.28515625 0.09765625 -2.28515625 0.09765625 0 0 Z " fill="#CCCCCC" transform="translate(8.28515625,25.90234375)"/>
<path d="M0 0 C5.28 0 10.56 0 16 0 C16 1.98 16 3.96 16 6 C15.01 6 14.02 6 13 6 C13 5.01 13 4.02 13 3 C8.71 3 4.42 3 0 3 C0 2.01 0 1.02 0 0 Z " fill="#8F8F8F" transform="translate(25,4)"/>
<path d="M0 0 C1.32 0 2.64 0 4 0 C4 4.29 4 8.58 4 13 C2.68 13 1.36 13 0 13 C0 8.71 0 4.42 0 0 Z " fill="#B6B5B6" transform="translate(12,33)"/>
<path d="M0 0 C0.99 0 1.98 0 3 0 C3 2.97 3 5.94 3 9 C-0.3 9 -3.6 9 -7 9 C-7 8.01 -7 7.02 -7 6 C-4.69 6 -2.38 6 0 6 C0 4.02 0 2.04 0 0 Z " fill="#7B7B7B" transform="translate(64,62)"/>
<path d="M0 0 C2.97 0 5.94 0 9 0 C9 1.32 9 2.64 9 4 C8.01 4 7.02 4 6 4 C6 4.99 6 5.98 6 7 C5.01 7 4.02 7 3 7 C3 6.01 3 5.02 3 4 C2.01 4 1.02 4 0 4 C0 2.68 0 1.36 0 0 Z " fill="#A8A8A8" transform="translate(67,26)"/>
<path d="M0 0 C1.98 0 3.96 0 6 0 C6 0.99 6 1.98 6 3 C5.01 3 4.02 3 3 3 C3 4.32 3 5.64 3 7 C1.02 7 -0.96 7 -3 7 C-3 5.68 -3 4.36 -3 3 C-2.01 3 -1.02 3 0 3 C0 2.01 0 1.02 0 0 Z " fill="#9B9B9B" transform="translate(22,7)"/>
<path d="M0 0 C1.32 0 2.64 0 4 0 C4 3.3 4 6.6 4 10 C2.68 10 1.36 10 0 10 C0 6.7 0 3.4 0 0 Z " fill="#929292" transform="translate(12,68)"/>
<path d="M0 0 C0.99 0 1.98 0 3 0 C3 4.29 3 8.58 3 13 C2.01 13 1.02 13 0 13 C0 8.71 0 4.42 0 0 Z " fill="#AFAFAE" transform="translate(6,62)"/>
<path d="M0 0 C0.99 0 1.98 0 3 0 C3 4.29 3 8.58 3 13 C2.01 13 1.02 13 0 13 C0 8.71 0 4.42 0 0 Z " fill="#B1B1B1" transform="translate(22,23)"/>
<path d="M0 0 C0.99 0 1.98 0 3 0 C3 0.99 3 1.98 3 3 C4.98 3 6.96 3 9 3 C9 3.99 9 4.98 9 6 C6.03 6 3.06 6 0 6 C0 4.02 0 2.04 0 0 Z " fill="#777777" transform="translate(3,78)"/>
<path d="M0 0 C0.99 0 1.98 0 3 0 C3 0.99 3 1.98 3 3 C4.98 3 6.96 3 9 3 C9 3.99 9 4.98 9 6 C6.03 6 3.06 6 0 6 C0 4.02 0 2.04 0 0 Z " fill="#878787" transform="translate(32,65)"/>
<path d="M0 0 C0.99 0 1.98 0 3 0 C3 3.3 3 6.6 3 10 C2.01 10 1.02 10 0 10 C0 6.7 0 3.4 0 0 Z " fill="#868686" transform="translate(16,55)"/>
<path d="M0 0 C0.99 0 1.98 0 3 0 C3 3.3 3 6.6 3 10 C2.01 10 1.02 10 0 10 C0 6.7 0 3.4 0 0 Z " fill="#8D8D8D" transform="translate(19,39)"/>
<path d="M0 0 C3.3 0 6.6 0 10 0 C10 0.99 10 1.98 10 3 C6.7 3 3.4 3 0 3 C0 2.01 0 1.02 0 0 Z " fill="#DCDCDC" transform="translate(28,7)"/>
<path d="M0 0 C0.66 0.33 1.32 0.66 2 1 C2 3.97 2 6.94 2 10 C1.01 10 0.02 10 -1 10 C-1.02689216 8.52093108 -1.04634621 7.04172517 -1.0625 5.5625 C-1.07410156 4.73878906 -1.08570313 3.91507813 -1.09765625 3.06640625 C-1 1 -1 1 0 0 Z " fill="#8D8D8D" transform="translate(10,48)"/>
<path d="M0 0 C0.66 0.33 1.32 0.66 2 1 C2 3.97 2 6.94 2 10 C1.01 10 0.02 10 -1 10 C-1.02689216 8.52093108 -1.04634621 7.04172517 -1.0625 5.5625 C-1.07410156 4.73878906 -1.08570313 3.91507813 -1.09765625 3.06640625 C-1 1 -1 1 0 0 Z " fill="#797979" transform="translate(17,16)"/>
<path d="M0 0 C0.99 0 1.98 0 3 0 C3 1.98 3 3.96 3 6 C1.02 6 -0.96 6 -3 6 C-3 5.01 -3 4.02 -3 3 C-2.01 3 -1.02 3 0 3 C0 2.01 0 1.02 0 0 Z " fill="#909090" transform="translate(41,52)"/>
<path d="M0 0 C0.99 0 1.98 0 3 0 C3 0.99 3 1.98 3 3 C3.99 3 4.98 3 6 3 C6 3.99 6 4.98 6 6 C4.02 6 2.04 6 0 6 C0 4.02 0 2.04 0 0 Z " fill="#919191" transform="translate(51,36)"/>
<path d="M0 0 C1.98 0 3.96 0 6 0 C6 1.32 6 2.64 6 4 C4.02 4 2.04 4 0 4 C0 2.68 0 1.36 0 0 Z " fill="#D2D2D2" transform="translate(38,58)"/>
<path d="M0 0 C1.32 0 2.64 0 4 0 C4 1.98 4 3.96 4 6 C2.68 6 1.36 6 0 6 C0 4.02 0 2.04 0 0 Z " fill="#767676" transform="translate(60,52)"/>
<path d="M0 0 C1.32 0 2.64 0 4 0 C4 1.98 4 3.96 4 6 C2.68 6 1.36 6 0 6 C0 4.02 0 2.04 0 0 Z " fill="#D6D6D6" transform="translate(60,36)"/>
<path d="M0 0 C1.32 0 2.64 0 4 0 C4 1.98 4 3.96 4 6 C2.68 6 1.36 6 0 6 C0 4.02 0 2.04 0 0 Z " fill="#7A7A7A" transform="translate(12,33)"/>
<path d="M0 0 C1.32 0 2.64 0 4 0 C4 1.98 4 3.96 4 6 C2.68 6 1.36 6 0 6 C0 4.02 0 2.04 0 0 Z " fill="#DCDCDC" transform="translate(44,30)"/>
<path d="M0 0 C1.98 0 3.96 0 6 0 C6 1.32 6 2.64 6 4 C4.02 4 2.04 4 0 4 C0 2.68 0 1.36 0 0 Z " fill="#A0A0A0" transform="translate(32,10)"/>
<path d="M0 0 C0.99 0 1.98 0 3 0 C3 2.31 3 4.62 3 7 C2.01 7 1.02 7 0 7 C-0.38133299 5.0085944 -0.71325582 3.00720923 -1 1 C-0.67 0.67 -0.34 0.34 0 0 Z " fill="#979797" transform="translate(6,26)"/>
<path d="M0 0 C0.99 0 1.98 0 3 0 C3 2.31 3 4.62 3 7 C2.01 7 1.02 7 0 7 C0 4.69 0 2.38 0 0 Z " fill="#797979" transform="translate(54,58)"/>
<path d="M0 0 C2.31 0 4.62 0 7 0 C7 0.99 7 1.98 7 3 C4.69 3 2.38 3 0 3 C0 2.01 0 1.02 0 0 Z " fill="#717171" transform="translate(25,4)"/>
<path d="M0 0 C0.99 0 1.98 0 3 0 C3 1.98 3 3.96 3 6 C2.01 6 1.02 6 0 6 C0 4.02 0 2.04 0 0 Z " fill="#A1A1A1" transform="translate(64,62)"/>
<path d="M0 0 C1.98 0 3.96 0 6 0 C6 0.99 6 1.98 6 3 C4.02 3 2.04 3 0 3 C0 2.01 0 1.02 0 0 Z " fill="#D6D6D6" transform="translate(35,65)"/>
<path d="M0 0 C0.99 0 1.98 0 3 0 C3 1.98 3 3.96 3 6 C2.01 6 1.02 6 0 6 C0 4.02 0 2.04 0 0 Z " fill="#6E6E6E" transform="translate(6,62)"/>
<path d="M0 0 C0.99 0 1.98 0 3 0 C3 1.98 3 3.96 3 6 C2.01 6 1.02 6 0 6 C0 4.02 0 2.04 0 0 Z " fill="#979797" transform="translate(57,46)"/>
<path d="M0 0 C0.99 0 1.98 0 3 0 C3 1.98 3 3.96 3 6 C2.01 6 1.02 6 0 6 C0 4.02 0 2.04 0 0 Z " fill="#B6B6B6" transform="translate(48,30)"/>
<path d="M0 0 C1.98 0 3.96 0 6 0 C6 0.99 6 1.98 6 3 C4.02 3 2.04 3 0 3 C0 2.01 0 1.02 0 0 Z " fill="#A2A2A2" transform="translate(22,7)"/>
<path d="M0 0 C0.99 0 1.98 0 3 0 C3 1.98 3 3.96 3 6 C2.01 6 1.02 6 0 6 C0 4.02 0 2.04 0 0 Z " fill="#5D5D5D" transform="translate(38,4)"/>
<path d="M0 0 C2 1 2 1 2 1 Z " fill="#535353" transform="translate(35,21)"/>
<path d="" fill="#555254" transform="translate(0,0)"/>
<path d="" fill="#525255" transform="translate(0,0)"/>
<path d="" fill="#555254" transform="translate(0,0)"/>
<path d="" fill="#515452" transform="translate(0,0)"/>
<path d="" fill="#515452" transform="translate(0,0)"/>
<path d="" fill="#585958" transform="translate(0,0)"/>
<path d="" fill="#525255" transform="translate(0,0)"/>
<path d="" fill="#515452" transform="translate(0,0)"/>
<path d="" fill="#515452" transform="translate(0,0)"/>
<path d="" fill="#515451" transform="translate(0,0)"/>
<path d="" fill="#515452" transform="translate(0,0)"/>
<path d="" fill="#525255" transform="translate(0,0)"/>
<path d="" fill="#545154" transform="translate(0,0)"/>
<path d="" fill="#515452" transform="translate(0,0)"/>
<path d="" fill="#545153" transform="translate(0,0)"/>
<path d="" fill="#555254" transform="translate(0,0)"/>
<path d="" fill="#515452" transform="translate(0,0)"/>
<path d="" fill="#525255" transform="translate(0,0)"/>
<path d="" fill="#555255" transform="translate(0,0)"/>
<path d="" fill="#515452" transform="translate(0,0)"/>
<path d="" fill="#525553" transform="translate(0,0)"/>
<path d="" fill="#515452" transform="translate(0,0)"/>
<path d="" fill="#515451" transform="translate(0,0)"/>
<path d="" fill="#515452" transform="translate(0,0)"/>
<path d="" fill="#545153" transform="translate(0,0)"/>
<path d="" fill="#545153" transform="translate(0,0)"/>
<path d="" fill="#525255" transform="translate(0,0)"/>
<path d="" fill="#515452" transform="translate(0,0)"/>
<path d="" fill="#525552" transform="translate(0,0)"/>
</svg>
