<?xml version="1.0" encoding="UTF-8" standalone="no"?>
<!DOCTYPE svg PUBLIC "-//W3C//DTD SVG 1.1//EN" "http://www.w3.org/Graphics/SVG/1.1/DTD/svg11.dtd">
<svg version="1.1" xmlns="http://www.w3.org/2000/svg" xmlns:xlink="http://www.w3.org/1999/xlink" preserveAspectRatio="xMidYMid meet" viewBox="0 0 640 640" width="640" height="640"><defs><path d="M3.45 5.61L633.67 5.61L633.67 634.39L3.45 634.39L3.45 5.61Z" id="d84HQBiC7"></path><path d="M290.92 373.63C314.17 376.36 340.31 403.59 346.13 419.93C346.13 425.38 351.94 425.38 354.84 422.65C421.66 349.12 558.22 177.56 529.16 158.5C500.11 142.16 354.84 289.21 288.02 362.74C285.11 368.19 288.02 370.91 290.92 373.63Z" id="n1b029anOo"></path><path d="M285.11 417.21C247.34 389.97 195.05 406.31 168.9 444.44C116.6 517.97 168.9 534.31 99.17 572.43C200.86 580.6 267.68 553.37 293.83 515.24C319.98 477.12 322.88 444.44 285.11 417.21Z" id="bBiNu43hI"></path><path d="M269.64 2.01L637.27 2.01L637.27 87.63L269.64 87.63L269.64 2.01Z" id="azdAIlLpS"></path></defs><g><g><g><use xlink:href="#d84HQBiC7" opacity="1" fill="#dddddd" fill-opacity="1"></use><g><use xlink:href="#d84HQBiC7" opacity="1" fill-opacity="0" ></use></g></g><g><use xlink:href="#n1b029anOo" opacity="1" fill="#535353" fill-opacity="1"></use><g><use xlink:href="#n1b029anOo" opacity="1" fill-opacity="0" ></use></g></g><g><use xlink:href="#bBiNu43hI" opacity="1" fill="#535353" fill-opacity="1"></use><g><use xlink:href="#bBiNu43hI" opacity="1" fill-opacity="0" ></use></g></g><g><use xlink:href="#azdAIlLpS" opacity="1" fill="#535353" fill-opacity="1"></use></g></g></g></svg>