<svg version="1.1" xmlns="http://www.w3.org/2000/svg" x="0px" y="0px" viewBox="0 0 18 18">
	<path fill="#dddddd" d="M8.8,17c-1.9,0-3.5-0.6-4.4-1.6c-1.1-1-1.6-2.4-1.4-3.9c0.2-1.7,1.2-3.2,2.2-4.6c0.8-1.1,1.6-2.2,1.8-3.5
		c0.1-0.7,0.2-1.6,0.1-1.8C7.1,1.3,7.3,1.1,7.6,1c0.3-0.1,0.6,0.1,0.7,0.3c0.5,1.5,1.8,3,3.2,4.4c1.6,1.8,3.3,3.6,3.3,5.6
		c0,4.1-3,5.6-5.7,5.6L8.8,17z M8.1,3.6C8.1,3.6,8.1,3.7,8.1,3.6c-0.2,1.5-1.1,2.7-2,4c-0.9,1.2-1.8,2.5-2,4.1
		c-0.1,1.1,0.3,2.2,1.2,3.1C6,15.5,7.3,16,8.8,16h0.1c1.4,0,4.6-0.5,4.6-4.6c0-1.6-1.4-3.3-3.1-4.9C9.7,5.6,8.7,4.6,8.1,3.6z"/>
	<path fill="#dddddd" d="M8.1,3.6C8.1,3.6,8.1,3.7,8.1,3.6c-0.2,1.5-1.1,2.7-2,4c-0.9,1.2-1.8,2.5-2,4.1c-0.1,1.1,0.3,2.2,1.2,3.1
		C6,15.5,7.3,16,8.8,16h0.1c1.4,0,4.6-0.5,4.6-4.6c0-1.6-1.4-3.3-3.1-4.9C9.7,5.6,8.7,4.6,8.1,3.6z"/>
</svg>
