<svg version="1.1" xmlns="http://www.w3.org/2000/svg" x="0px" y="0px" viewBox="0 0 18 18">
	<path fill="#dddddd" d="M14.8,16.5c0,0.3-0.2,0.5-0.5,0.5H3.6c-0.3,0-0.5-0.2-0.5-0.5c0-0.3,0.2-0.5,0.5-0.5h10.7C14.6,15.9,14.8,16.1,14.8,16.5z"/>
	<path fill="#dddddd" d="M8.9,1C7.1,1,5.6,2.5,5.6,4.3c0,1.4,1,2.7,2.2,3.1c0,1.3-0.2,3.3-0.5,3.3c-0.7,0-5.3,0.9-5.3,1.6v2.1
		C2,14.8,2.2,15,2.5,15h12.8c0.3,0,0.5-0.2,0.5-0.5v-2.1c0-0.7-4.5-1.5-5.2-1.5c-0.3,0-0.4-2-0.5-3.3c1.3-0.4,2.2-1.7,2.2-3.1
		C12.3,2.5,10.9,1,8.9,1z"/>
</svg>
