<svg xmlns="http://www.w3.org/2000/svg" viewBox="0 0 22 18">
    <path fill="#dddddd" d="M3.00016,14.00018h-.5a.50005.50005,0,0,0-.5.5v1a.50005.50005,0,0,0,.5.5h1a.50005.50005,0,0,0,.5-.5v-.5h13v.5a.50005.50005,0,0,0,.5.5h1a.50005.50005,0,0,0,.5-.5v-1a.50005.50005,0,0,0-.5-.5h-.5v-10h.5a.50005.50005,0,0,0,.5-.5v-1a.50005.50005,0,0,0-.5-.5h-1a.50005.50005,0,0,0-.5.5v.5h-13v-.5a.50005.50005,0,0,0-.5-.5h-1a.50005.50005,0,0,0-.5.5v1a.50005.50005,0,0,0,.5.5h.5Zm1-10,5.694,5.0088-5.694,4.9912h0Zm11.3864,0L10.50086,8.299l-4.8871-4.2988Zm1.6136,10L11.30766,9.009l5.6925-5.0088v10Zm-11.3635,0,4.8642-4.2812,4.8628,4.2812Z"/>
</svg>
