<svg version="1.1" xmlns="http://www.w3.org/2000/svg" x="0px" y="0px" viewBox="0 0 18 18">
    <path fill="#dddddd" d="M9.5,1.9c0.4,0,0.7,0.4,0.7,0.7v6.1l1.4,0.1V3.3c0-0.4,0.3-0.7,0.7-0.7s0.7,0.3,0.7,0.7v6.1
        c0,0.2,0.8,0.4,1,0.6l0.7-3.7c0.1-0.4,0.3-0.5,0.5-0.5c0.1,0,0.1,0,0.2,0C16,5.9,16.1,6.4,16,6.7l-0.7,5.1c0,0-0.3,4.4-5.3,4.4
        c-1.6,0-3.7,0.3-5.3-2.3C3,11.3,2,9.6,2,9.6S1.5,9,2.2,8.6c0.2-0.1,0.4-0.2,0.4-0.2c0.4,0,0.7,0.4,0.7,0.4l2.1,2.5
        c0.1-0.3,0.3-0.5,0.3-0.8V3.9c0-0.4,0.4-0.8,0.8-0.8s1,0.3,1,0.7V9c0-0.1,0.6-0.3,1-0.3c0.1,0,0.1,0,0.1,0V2.5
        C8.7,2.2,9,1.9,9.5,1.9L9.5,1.9z"/>
    <path fill="#dddddd" d="M9.5,1.9c0.4,0,0.7,0.4,0.7,0.7v6.1l1.4,0.1V3.3c0-0.4,0.3-0.7,0.7-0.7s0.7,0.3,0.7,0.7v6.1
        c0,0.2,0.8,0.4,1,0.6l0.7-3.7c0.1-0.4,0.3-0.5,0.5-0.5c0.1,0,0.1,0,0.2,0C16,5.9,16.1,6.4,16,6.7l-0.7,5.1c0,0-0.3,4.4-5.3,4.4
        c-1.6,0-3.7,0.3-5.3-2.3C3,11.3,2,9.6,2,9.6S1.5,9,2.2,8.6c0.2-0.1,0.4-0.2,0.4-0.2c0.4,0,0.7,0.4,0.7,0.4l2.1,2.5
        c0.1-0.3,0.3-0.5,0.3-0.8V3.9c0-0.4,0.4-0.8,0.8-0.8s1,0.3,1,0.7V9c0-0.1,0.6-0.3,1-0.3c0.1,0,0.1,0,0.1,0V2.5
        C8.7,2.2,9,1.9,9.5,1.9L9.5,1.9z"/>
</svg>
