<svg version="1.1" xmlns="http://www.w3.org/2000/svg" x="0px" y="0px" viewBox="0 0 18 18">
	<path fill="#dddddd" d="M9,9.2C8.9,9.4,9,9.5,9.1,9.5c0.8,0.1,1.6,1,1.8,1.6c0,0.2,0.2,0.2,0.3,0.1c2.2-2.6,6.7-8.6,5.7-9.2
		C15.8,1.5,11.2,6.6,9,9.2z"/>
	<path fill="#dddddd" d="M9.2,14.5c0.9-1.3,1-2.5-0.3-3.4c-1.2-1-2.9-0.4-3.8,1c-1.7,2.6,0,3.1-2.3,4.5C6,16.8,8.3,15.8,9.2,14.5z" />
	<path fill="#dddddd" d="M12.3,14.1c0,0.3,0.2,0.5,0.5,0.5c0.3,0,0.5-0.2,0.5-0.5s-0.2-0.5-0.5-0.5
		C12.5,13.6,12.3,13.8,12.3,14.1z M14.3,12.2c0,0.3,0.2,0.5,0.5,0.5s0.5-0.2,0.5-0.5s-0.2-0.5-0.5-0.5S14.3,12,14.3,12.2z
		M15.3,8.5c0,0.3,0.2,0.5,0.5,0.5s0.5-0.2,0.5-0.5S16,8,15.7,8S15.3,8.2,15.3,8.5z M15.3,10.4c0,0.3,0.2,0.5,0.5,0.5
		s0.5-0.2,0.5-0.5S16,9.9,15.7,9.9S15.3,10.1,15.3,10.4z"/>
	<path fill="#dddddd" d="M4.9,5.7C5.8,5,7.4,4.1,8.5,4c1,0,1.7,0.3,2.7,0.6c0.2,0.1,0,0.6-0.3,0.5C10,4.8,9.2,4.6,8.4,4.6
		C7.6,4.6,6.2,5.3,5.2,6l1,1.4C6.4,7.6,6.3,7.8,6,7.8H1.3C1,7.8,0.9,7.6,1.1,7.5l2.3-3c0.2-0.2,0.4-0.2,0.6,0L4.9,5.7z"/>
</svg>
