<svg version="1.1" xmlns="http://www.w3.org/2000/svg" x="0px" y="0px" viewBox="0 0 18 18">
	<path fill="#dddddd" d="M4.1,12.5H4c-1.2,0-1.7-0.2-1.7-0.8c0-0.3,0.2-0.5,0.5-0.7C3.2,11.5,3.8,12.1,4.1,12.5z M4,10.8c1.2,0,1.7,0.3,1.7,0.9
		c0,0.4-0.2,0.6-0.6,0.7c-0.3-0.4-0.9-1.1-1.4-1.6C3.8,10.8,3.9,10.8,4,10.8z M8.6,12.3C13.1,12,17,8.9,17,5.9
		c0-2.6-2.9-5.3-7.5-4.9C4.9,1.3,1,4.2,1,7.7c0,0.9,0.2,2,0.8,2.7c-0.5,0.3-0.7,0.7-0.7,1.2c0,1,1.3,1.8,2.9,1.8c0.1,0,0.2,0,0.4,0
		c0.4,0.3,1.1,0.8,1.1,1.3c0.1,0.8-1.2,2.2-1.2,2.2h1c0,0,1.1-1.7,1-2.3c0-0.4-0.5-1-0.9-1.4C6,13,6.5,12.7,6.7,12.3
		C7.2,12.3,7.8,12.3,8.6,12.3z M9.4,2.1c4.2-0.2,6.4,1.7,6.6,3.8c0.2,2.2-3.2,5.2-7.4,5.4c-0.7,0-1.2,0-1.8,0
		C6.5,10.5,5.4,9.9,4,9.9c-0.4,0-0.7,0.1-1.1,0.2C2.5,9.7,2.3,9,2.2,8.6C1.4,5.7,5.1,2.3,9.4,2.1z"/>
</svg>
