<svg version="1.1" xmlns="http://www.w3.org/2000/svg" x="0px" y="0px" viewBox="0 0 18 18">
	<path fill="#dddddd" d="M15.2,7.1l-0.5,1.3l-1.3,0.5l1.3,0.5l0.5,1.4l0.5-1.4L17,8.8l-1.3-0.5L15.2,7.1L15.2,7.1z"/>
	<path fill="#dddddd" d="M14.3,1L15,2.8l1.8,0.7L15,4.3l-0.7,1.8l-0.7-1.8l-1.8-0.7l1.8-0.7L14.3,1L14.3,1z"/>
	<path fill="#dddddd" d="M7.3,1.4l0.6,1.6l1.6,0.6L7.9,4.2L7.3,5.7L6.6,4.2L5,3.5l1.6-0.6L7.3,1.4L7.3,1.4z"/>
	<path fill="#dddddd" d="M10.8,5.2c-0.5,0-0.9,0.2-1.2,0.5l-8.1,8.1c-0.7,0.7-0.7,1.8,0,2.4c0.4,0.4,0.8,0.5,1.2,0.5c0.5,0,0.9-0.2,1.2-0.5
		l8.1-8.1c0.7-0.7,0.7-1.8,0-2.4C11.8,5.4,11.3,5.2,10.8,5.2z M9.5,9.6L8.2,8.4l2-2c0.2-0.2,0.4-0.3,0.6-0.3c0.3,0,0.5,0.1,0.6,0.3
		c0.4,0.4,0.4,0.9,0,1.2L9.5,9.6z"/>
</svg>
