<svg version="1.1" xmlns="http://www.w3.org/2000/svg" x="0px" y="0px" viewBox="0 0 18 18">
	<path fill="#dddddd" d="M16.7,5.2L16.7,5.2l-3.3-3.3C12.6,1.1,12.5,1,12,1c-0.3,0-0.6,0.1-0.9,0.3c-0.5,0.5-1,1.4-1,1.5L9.9,3L4.3,5.9
		C4.1,6,3.9,6.2,3.8,6.6l-2.7,8.1c-0.2,0.5,0,1.1,0.4,1.5c0.1,0.1,0.3,0.3,0.4,0.3c0.4,0.3,0.6,0.4,1.1,0.4c0.1,0,0.2,0,0.3-0.1
		l8.1-2.7c0.3-0.1,0.5-0.3,0.6-0.5L15,8.1c0-0.1,0.2-0.2,0.3-0.3c0.1-0.1,1-0.5,1.4-1C17.1,6.3,17.1,5.7,16.7,5.2L16.7,5.2z
		M11,13.2l-8.1,2.7l4.7-4.7c0.5,0.2,1.1,0.1,1.5-0.3c0.5-0.5,0.5-1.4,0-1.9c-0.5-0.5-1.4-0.5-1.9,0C6.7,9.3,6.6,10,6.9,10.4
		l-4.7,4.7L4.8,7l5.7-2.9l3.4,3.4L11,13.2z"/>
</svg>
