<svg version="1.1" xmlns="http://www.w3.org/2000/svg" x="0px" y="0px" viewBox="0 0 18 18">
	<path fill="#dddddd" d="M13.5,16c-0.3,0-0.5-0.2-0.5-0.5s0.2-0.5,0.5-0.5H16v-1.5c0-0.3,0.2-0.5,0.5-0.5s0.5,0.2,0.5,0.5v2
		c0,0.3-0.2,0.5-0.5,0.5H13.5z M16,8.5C16,8.2,16.2,8,16.5,8S17,8.2,17,8.5v2c0,0.3-0.2,0.5-0.5,0.5S16,10.8,16,10.5V8.5z M16,4
		h-2.5C13.2,4,13,3.8,13,3.5S13.2,3,13.5,3h3C16.8,3,17,3.2,17,3.5v2C17,5.8,16.8,6,16.5,6S16,5.8,16,5.5V4z M7,15.5
		C7,15.2,7.2,15,7.5,15h3c0.3,0,0.5,0.2,0.5,0.5S10.8,16,10.5,16h-3C7.2,16,7,15.8,7,15.5z M7,3.5C7,3.2,7.2,3,7.5,3h3
		C10.8,3,11,3.2,11,3.5S10.8,4,10.5,4h-3C7.2,4,7,3.8,7,3.5z M1,13.5C1,13.2,1.2,13,1.5,13S2,13.2,2,13.5V15h2.5
		C4.8,15,5,15.2,5,15.5S4.8,16,4.5,16h-3C1.2,16,1,15.8,1,15.5V13.5z M2,5.5C2,5.8,1.8,6,1.5,6S1,5.8,1,5.5v-2C1,3.2,1.2,3,1.5,3h3
		C4.8,3,5,3.2,5,3.5S4.8,4,4.5,4H2V5.5z M2,10.5C2,10.8,1.8,11,1.5,11S1,10.8,1,10.5v-2C1,8.2,1.2,8,1.5,8S2,8.2,2,8.5V10.5z"/>
</svg>
