<svg version="1.1" xmlns="http://www.w3.org/2000/svg" x="0px" y="0px" viewBox="0 0 20 18">
	<path fill="#dddddd" d="M2,8h1v1H2V8z"/>
	<path fill="#dddddd" d="M1,6h1v1H1V6z"/>
	<path fill="#dddddd" d="M1,4h1v1H1V4z"/>
	<path fill="#dddddd" d="M2,2h1v1H2V2z"/>
	<path fill="#dddddd" d="M4,1h1v1H4V1z"/>
	<path fill="#dddddd" d="M6,1h1v1H6V1z"/>
	<path fill="#dddddd" d="M8,2h1v1H8V2z"/>
	<path fill="#dddddd" d="M14.6,0.9l4.5,4.5L7.4,17.1l-4.5-4.5L14.6,0.9L14.6,0.9L14.6,0.9z"/>
	<path fill="#dddddd" d="M14.6,0c-0.2,0-0.5,0.1-0.6,0.3L2.3,12c-0.3,0.3-0.3,0.9,0,1.2l4.5,4.5C6.9,17.9,7.2,18,7.4,18
		c0.2,0,0.5-0.1,0.6-0.3L19.7,6c0.3-0.3,0.3-0.9,0-1.2l-4.5-4.5C15.1,0.1,14.8,0,14.6,0z M15.9,8.6l-4.5-4.5l3.2-3.2l4.5,4.5
		L15.9,8.6z M10.8,13.7L6.3,9.1l4.7-4.7l4.5,4.5L10.8,13.7z M6,9.4l4.5,4.5l-3.1,3.1l-4.5-4.5L6,9.4z"/>
	<path fill="#dddddd" d="M8.4,8.9C8.4,8.4,8.8,8,9.3,8s0.9,0.4,0.9,0.9c0,0.5-0.4,0.9-0.9,0.9C8.8,9.8,8.4,9.4,8.4,8.9
		C8.4,8.9,8.4,8.9,8.4,8.9z"/>
	<path fill="#dddddd" d="M10.2,10.7c0-0.5,0.4-0.9,0.9-0.9s0.9,0.4,0.9,0.9c0,0.5-0.4,0.9-0.9,0.9C10.6,11.5,10.2,11.1,10.2,10.7z
		"/>
	<path fill="#dddddd" d="M10.2,7.2c0-0.5,0.4-0.9,0.9-0.9c0.5,0,0.9,0.4,0.9,0.9C11.9,7.7,11.5,8,11,8C10.6,8,10.2,7.7,10.2,7.2
		C10.2,7.2,10.2,7.2,10.2,7.2z"/>
	<path fill="#dddddd" d="M11.9,8.9c0-0.5,0.4-0.9,0.9-0.9s0.9,0.4,0.9,0.9c0,0.5-0.4,0.9-0.9,0.9C12.3,9.8,11.9,9.4,11.9,8.9
		C11.9,8.9,11.9,8.9,11.9,8.9z"/>
</svg>
